:SAMPLES-PER-SECOND 30
:FULLY-SPECIFIED
:DEGREES
1
root  75.8153 40.3767 26.0953 -27.9271 -85.3532 31.9881
RightUpLeg  -2.05674 -8.32544 -6.03573
RightLeg  3.95126 -7.54902 2.52398
RightFoot  -4.30544 -0.0123349 -0.296559
RightToes  2.32829e-010 0 -3.6325e-017
Spine  -4.18671 -1.35264 13.2828
Spine1  -1.01609 3.05241 -28.0959
HEad  6.38506 1.71982 -7.86946
LeftShoulder1  5.57585 -9.27459 -37.4868
LeftArm  -5.44949 16.8463 -17.0074
LeftForeArm  31.4091 -48.8085 -10.4537
LeftHand  -0.244104 0.0205437 5.32207
RightShoulder  1.80497 2.09755 26.1262
RightArm  -12.1521 -5.93836 -9.59386
RightForeArm  1.82927 1.76221 4.91656
RightHand  -0.46228 0.0852048 -9.85381
LeftUpLeg  0.208139 4.95631 2.49659
LeftLeg  -3.90263 10.6722 -6.5616
LeftFoot  0.0386906 -0.0617056 0.589232
LeftToes  -2.63786e-011 3.77076e-011 -4.2586e-012
2
root  75.8125 40.3765 26.1044 -28.14 -85.402 32.2229
RightUpLeg  -2.06922 -8.32022 -6.03762
RightLeg  3.91899 -7.51238 2.53527
RightFoot  -4.28096 -0.00917996 -0.345555
RightToes  2.32829e-010 0 -3.6325e-017
Spine  -4.21866 -1.29919 13.3743
Spine1  -0.951326 3.13099 -28.2014
HEad  -7.2556 -10.4298 -27.8455
LeftShoulder1  5.55889 -9.25247 -37.4314
LeftArm  -7.37615 16.6907 -16.7984
LeftForeArm  26.4858 -48.9995 -10.9077
LeftHand  -0.244104 0.0205437 5.32207
RightShoulder  1.78292 2.01728 26.1971
RightArm  -12.2034 -5.90278 -9.64549
RightForeArm  1.88024 1.87398 4.91576
RightHand  -0.453939 0.0565237 -9.72606
LeftUpLeg  0.200457 4.94637 2.48239
LeftLeg  -3.92031 10.722 -6.55673
LeftFoot  0.0491128 -0.0644838 0.63241
LeftToes  -2.63786e-011 3.77076e-011 -4.2586e-012
3
root  75.7908 40.3767 26.1132 -28.7633 -85.4199 32.9323
RightUpLeg  -2.16725 -8.37129 -6.09081
RightLeg  3.98637 -7.43737 2.5473
RightFoot  -4.29262 -0.00624953 -0.391067
RightToes  2.32829e-010 0 -3.6325e-017
Spine  -4.53491 -1.20581 13.3707
Spine1  -0.624027 3.2807 -28.2144
HEad  -19.0191 -31.7326 -36.5311
LeftShoulder1  5.53755 -9.22454 -37.3617
LeftArm  -9.88362 16.5087 -16.5137
LeftForeArm  20.5914 -49.3398 -11.5123
LeftHand  -0.244104 0.0205437 5.32207
RightShoulder  1.74648 1.90482 26.1937
RightArm  -12.2574 -5.86761 -9.62145
RightForeArm  2.00189 2.09271 4.92413
RightHand  -0.462557 0.192109 -9.68046
LeftUpLeg  0.198617 4.89202 2.422
LeftLeg  -4.03336 10.7936 -6.58229
LeftFoot  0.0813479 -0.0633388 0.614615
LeftToes  -2.63786e-011 3.77076e-011 -4.2586e-012
4
root  75.7782 40.3793 26.1278 -29.0919 -85.437 33.2694
RightUpLeg  -2.17632 -8.42837 -6.1413
RightLeg  4.01852 -7.36153 2.5744
RightFoot  -4.26796 -0.00343171 -0.434832
RightToes  2.32829e-010 0 -3.6325e-017
Spine  -4.61692 -1.20061 13.6743
Spine1  -0.499014 3.37564 -28.651
HEad  -25.3245 -41.843 -34.1989
LeftShoulder1  5.51441 -9.19385 -37.287
LeftArm  -12.3966 16.3516 -16.2243
LeftForeArm  15.5361 -49.7962 -12.1161
LeftHand  -0.244104 0.0205437 5.32207
RightShoulder  1.73683 1.86545 26.2524
RightArm  -12.321 -5.84077 -9.5786
RightForeArm  2.10025 2.16382 4.9106
RightHand  -0.487623 0.409922 -9.83783
LeftUpLeg  0.227521 4.84436 2.3755
LeftLeg  -4.06673 10.8799 -6.57561
LeftFoot  0.0874642 -0.0632842 0.613766
LeftToes  -2.63786e-011 3.77076e-011 -4.2586e-012
5
root  75.7885 40.3821 26.1472 -28.8867 -85.5072 32.954
RightUpLeg  -2.04392 -8.41607 -6.12571
RightLeg  3.93448 -7.32148 2.60099
RightFoot  -4.175 0.00174609 -0.515255
RightToes  2.32829e-010 0 -3.6325e-017
Spine  -4.3646 -1.24535 14.2646
Spine1  -0.605568 3.44185 -29.4526
HEad  -24.5367 -42.0701 -33.5437
LeftShoulder1  5.48886 -9.1601 -37.2037
LeftArm  -14.9419 16.2203 -15.9318
LeftForeArm  11.4064 -50.3821 -12.7194
LeftHand  -0.244104 0.0205437 5.32207
RightShoulder  1.76462 1.91504 26.4776
RightArm  -12.4702 -5.82244 -9.66736
RightForeArm  2.1649 1.96051 4.8338
RightHand  -0.504088 0.536568 -9.96144
LeftUpLeg  0.275958 4.85321 2.38948
LeftLeg  -3.94488 10.9497 -6.51289
LeftFoot  0.0445767 -0.0683375 0.692304
LeftToes  -2.63786e-011 3.77076e-011 -4.2586e-012
6
root  75.7958 40.383 26.1561 -28.6522 -85.5862 32.6417
RightUpLeg  -1.96374 -8.36886 -6.07601
RightLeg  3.89054 -7.31162 2.60185
RightFoot  -4.12294 0.00536805 -0.571515
RightToes  2.32829e-010 0 -3.6325e-017
Spine  -4.11564 -1.21815 14.4849
Spine1  -0.761977 3.49417 -29.7474
HEad  -24.4932 -43.1508 -33.0719
LeftShoulder1  5.46625 -9.13232 -37.1227
LeftArm  -17.5215 16.1179 -15.6269
LeftForeArm  8.19375 -51.0727 -13.3158
LeftHand  -0.244104 0.0205437 5.32207
RightShoulder  1.77814 1.92317 26.6857
RightArm  -12.6114 -5.85113 -9.90825
RightForeArm  2.29595 1.75382 4.74569
RightHand  -0.499601 0.560461 -9.83557
LeftUpLeg  0.305738 4.89229 2.43457
LeftLeg  -3.84491 10.9567 -6.47095
LeftFoot  -0.0063022 -0.0700842 0.719452
LeftToes  -2.63786e-011 3.77076e-011 -4.2586e-012
7
root  75.7782 40.3799 26.1487 -28.8496 -85.5955 32.889
RightUpLeg  -2.03105 -8.36372 -6.06859
RightLeg  3.97126 -7.30435 2.58153
RightFoot  -4.18999 0.00202739 -0.519624
RightToes  2.32829e-010 0 -3.6325e-017
Spine  -4.22113 -1.15424 14.3149
Spine1  -0.67783 3.54958 -29.5739
HEad  -24.5911 -44.2187 -32.6547
LeftShoulder1  5.44643 -9.10729 -37.0535
LeftArm  -20.1139 16.0352 -15.3
LeftForeArm  5.78244 -51.8394 -13.9054
LeftHand  -0.244104 0.0205437 5.32207
RightShoulder  1.74048 1.80606 26.6981
RightArm  -12.7017 -5.84015 -9.99002
RightForeArm  2.57179 1.77414 4.7043
RightHand  -0.49022 0.612996 -9.57353
LeftUpLeg  0.319697 4.90676 2.45017
LeftLeg  -3.92182 10.9335 -6.51094
LeftFoot  -0.0111806 -0.0653293 0.645551
LeftToes  -2.63786e-011 3.77076e-011 -4.2586e-012
8
root  75.7537 40.3754 26.1393 -29.4758 -85.5739 33.5928
RightUpLeg  -2.10575 -8.3843 -6.10439
RightLeg  4.04539 -7.26704 2.55693
RightFoot  -4.30495 -0.00491352 -0.411817
RightToes  2.32829e-010 0 -3.6325e-017
Spine  -4.46878 -1.15783 14.3205
Spine1  -0.488391 3.60587 -29.7421
HEad  -24.547 -45.2654 -32.1012
LeftShoulder1  5.42085 -9.07185 -36.9742
LeftArm  -22.689 15.9735 -14.9797
LeftForeArm  4.1211 -52.7086 -14.5123
LeftHand  -0.244104 0.0205437 5.32207
RightShoulder  1.71415 1.71893 26.7413
RightArm  -12.6929 -5.7786 -9.93935
RightForeArm  2.80039 1.89216 4.72261
RightHand  -0.491919 0.730954 -9.43077
LeftUpLeg  0.345357 4.89106 2.42174
LeftLeg  -4.05936 10.9754 -6.57693
LeftFoot  0.00792027 -0.0642757 0.629176
LeftToes  -2.63786e-011 3.77076e-011 -4.2586e-012
9
root  75.753 40.3756 26.1391 -29.982 -85.6247 34.0598
RightUpLeg  -2.05235 -8.34951 -6.103
RightLeg  4.02587 -7.20546 2.53436
RightFoot  -4.38387 -0.0102543 -0.328871
RightToes  2.32829e-010 0 -3.6325e-017
Spine  -4.51767 -1.19166 14.6593
Spine1  -0.347747 3.69857 -30.3528
HEad  -24.5212 -46.4036 -31.4634
LeftShoulder1  5.3928 -9.0324 -36.8885
LeftArm  -25.2469 15.94 -14.662
LeftForeArm  3.10084 -53.6845 -15.1559
LeftHand  -0.244104 0.0205437 5.32207
RightShoulder  1.74113 1.76835 26.9529
RightArm  -12.6236 -5.78511 -9.98981
RightForeArm  2.62323 1.93957 4.76505
RightHand  -0.495101 0.760749 -9.44797
LeftUpLeg  0.379633 4.90775 2.41914
LeftLeg  -4.01657 11.0408 -6.57122
LeftFoot  -0.0368278 -0.0678535 0.691013
LeftToes  -2.63786e-011 3.77076e-011 -4.2586e-012
10
root  75.7564 40.3746 26.1201 -30.4885 -85.6616 34.5043
RightUpLeg  -2.05814 -8.27714 -6.05377
RightLeg  4.17821 -7.19971 2.46933
RightFoot  -4.58519 -0.0198004 -0.190471
RightToes  2.32829e-010 0 -3.6325e-017
Spine  -4.5029 -1.15876 14.6903
Spine1  -0.192905 3.80166 -30.5407
HEad  -24.6891 -47.6746 -30.9377
LeftShoulder1  5.37132 -9.00348 -36.8183
LeftArm  -27.8006 15.9369 -14.3277
LeftForeArm  2.55579 -54.7276 -15.836
LeftHand  -0.244104 0.0205437 5.32207
RightShoulder  1.74719 1.76791 27.0745
RightArm  -12.636 -5.90343 -10.0358
RightForeArm  2.19829 2.02523 4.78016
RightHand  -0.481953 0.582299 -9.45887
LeftUpLeg  0.368546 4.99761 2.48496
LeftLeg  -3.84128 10.949 -6.56413
LeftFoot  -0.145759 -0.0620672 0.643546
LeftToes  -2.63786e-011 3.77076e-011 -4.2586e-012
11
root  75.8501 40.3737 26.2218 -25.4632 -86.2633 28.7819
RightUpLeg  -1.42931 -8.18879 -5.88
RightLeg  4.05417 -6.72239 2.6697
RightFoot  -4.5114 -0.0304519 -0.00268144
RightToes  2.32829e-010 0 -3.6325e-017
Spine  -2.19635 -1.60255 16.5963
Spine1  -1.8179 3.41963 -32.28
HEad  -24.9492 -48.7982 -30.5802
LeftShoulder1  5.3529 -8.97933 -36.7556
LeftArm  -30.3403 15.957 -13.9904
LeftForeArm  2.35477 -55.7951 -16.5444
LeftHand  -0.244104 0.0205437 5.32207
RightShoulder  1.65445 1.5148 26.8882
RightArm  -12.8561 -5.89043 -9.80506
RightForeArm  2.19818 2.21056 4.73139
RightHand  -0.463865 0.355559 -9.44876
LeftUpLeg  0.57718 5.23001 2.81195
LeftLeg  -2.87918 11.1741 -6.14903
LeftFoot  -0.667601 -0.0382583 0.446005
LeftToes  -2.63786e-011 3.77076e-011 -4.2586e-012
12
root  76.221 40.393 26.6888 -8.15439 -88.5428 9.11005
RightUpLeg  1.02231 -7.95488 -5.37866
RightLeg  2.63334 -4.94282 3.59619
RightFoot  -3.29004 -0.0192505 -0.0447756
RightToes  2.32829e-010 0 -3.6325e-017
Spine  5.85293 -3.28434 24.4092
Spine1  -7.87722 2.01648 -39.6197
HEad  -25.0644 -49.6326 -30.2787
LeftShoulder1  5.32481 -8.94033 -36.6667
LeftArm  -32.8284 15.9879 -13.6958
LeftForeArm  2.50886 -56.9152 -17.3075
LeftHand  -0.244104 0.0205437 5.32207
RightShoulder  1.55993 1.22872 26.8838
RightArm  -13.2329 -5.59203 -9.49706
RightForeArm  2.26983 2.36158 4.66344
RightHand  -0.482891 0.354462 -9.83537
LeftUpLeg  1.36143 5.67387 3.64017
LeftLeg  0.0176357 12.6201 -4.55851
LeftFoot  -2.1491 -0.00615184 0.24206
LeftToes  -2.63786e-011 3.77076e-011 -4.2586e-012
13
root  76.1952 40.3651 26.6122 -15.6964 -88.5722 16.976
RightUpLeg  0.0681397 -7.81919 -5.30759
RightLeg  3.93632 -5.04811 3.17958
RightFoot  -4.18567 -0.0206093 -0.127345
RightToes  2.32829e-010 0 -3.6325e-017
Spine  6.27194 -3.45176 23.0112
Spine1  -8.78024 1.44058 -38.2544
HEad  -25.6849 -50.3179 -29.797
LeftShoulder1  5.29547 -8.8949 -36.5889
LeftArm  -35.3024 16.0165 -13.3881
LeftForeArm  2.73729 -57.9628 -18.0582
LeftHand  -0.244104 0.0205437 5.32207
RightShoulder  1.6022 1.27534 27.4605
RightArm  -13.68 -5.27636 -9.34064
RightForeArm  0.493628 2.67648 4.71408
RightHand  -0.580341 0.632363 -11.2661
LeftUpLeg  1.06155 5.72204 3.55388
LeftLeg  0.0670427 12.6887 -4.72856
LeftFoot  -2.29884 -0.0132246 0.342499
LeftToes  -2.63786e-011 3.77076e-011 -4.2586e-012
